# xmcd CD database file
#
# Track frame offsets:
#	150
#	13473
#	19649
#	22786
#	29081
#	31501
#	38666
#	41886
#	54269
#	58129
#
# Disc length: 872 seconds
#
# Revision: 0
# Processed by: cddbd v1.5.2PL0 Copyright (c) Steve Scherf et al.
# Submitted via: CDex 1.70beta2
#
DISCID=7603660a
DTITLE=Vangelis - My brother the traffic policeman
DYEAR=1900
DGENRE=New Age
TTITLE0=Main titles
TTITLE1=Den pernas kira Maria
TTITLE2=Geo Vageo 1
TTITLE3=O grilos
TTITLE4=On the road
TTITLE5=Geo Vageo 2
TTITLE6=Crazy driver
TTITLE7=O Grilos (Reprise)
TTITLE8=Slow Theme
TTITLE9=The Kidnapping
EXTD=
EXTT0=
EXTT1=
EXTT2=
EXTT3=
EXTT4=
EXTT5=
EXTT6=
EXTT7=
EXTT8=
EXTT9=
PLAYORDER=
